<svg width="29" height="26" viewBox="0 0 29 26" fill="none" xmlns="http://www.w3.org/2000/svg">
<path d="M0 4.0625C0 2.7168 1.08247 1.625 2.41667 1.625H7.25C8.5842 1.625 9.66667 2.7168 9.66667 4.0625V4.875H19.3333V4.0625C19.3333 2.7168 20.4158 1.625 21.75 1.625H26.5833C27.9175 1.625 29 2.7168 29 4.0625V8.9375C29 10.2832 27.9175 11.375 26.5833 11.375H21.75C20.4158 11.375 19.3333 10.2832 19.3333 8.9375V8.125H9.66667V8.9375C9.66667 9.02383 9.66163 9.11016 9.65156 9.19141L13.6944 14.625H18.5278C19.862 14.625 20.9444 15.7168 20.9444 17.0625V21.9375C20.9444 23.2832 19.862 24.375 18.5278 24.375H13.6944C12.3602 24.375 11.2778 23.2832 11.2778 21.9375V17.0625C11.2778 16.9762 11.2828 16.8898 11.2929 16.8086L7.25 11.375H2.41667C1.08247 11.375 0 10.2832 0 8.9375V4.0625Z" fill="#B2E2D6"/>
</svg>
