<svg width="44" height="35" viewBox="0 0 44 35" fill="none" xmlns="http://www.w3.org/2000/svg">
<path d="M12.65 6.01562C12.65 8.12793 10.9244 9.84375 8.8 9.84375C6.67563 9.84375 4.95 8.12793 4.95 6.01562C4.95 3.90332 6.67563 2.1875 8.8 2.1875C10.9244 2.1875 12.65 3.90332 12.65 6.01562ZM4.4 16.7959C3.7125 17.5615 3.3 18.5801 3.3 19.6875C3.3 20.7949 3.7125 21.8135 4.4 22.5791V16.7959ZM14.3275 13.4258C12.2856 15.2236 11 17.8555 11 20.7812C11 23.126 11.825 25.2793 13.2 26.9678V28.4375C13.2 29.6475 12.2169 30.625 11 30.625H6.6C5.38312 30.625 4.4 29.6475 4.4 28.4375V26.6055C1.80125 25.375 0 22.7432 0 19.6875C0 15.4561 3.44438 12.0312 7.7 12.0312H9.9C11.55 12.0312 13.0763 12.5439 14.3275 13.4189V13.4258ZM30.8 28.4375V26.9678C32.175 25.2793 33 23.126 33 20.7812C33 17.8555 31.7144 15.2236 29.6725 13.4189C30.9238 12.5439 32.45 12.0312 34.1 12.0312H36.3C40.5556 12.0312 44 15.4561 44 19.6875C44 22.7432 42.1987 25.375 39.6 26.6055V28.4375C39.6 29.6475 38.6169 30.625 37.4 30.625H33C31.7831 30.625 30.8 29.6475 30.8 28.4375ZM39.05 6.01562C39.05 8.12793 37.3244 9.84375 35.2 9.84375C33.0756 9.84375 31.35 8.12793 31.35 6.01562C31.35 3.90332 33.0756 2.1875 35.2 2.1875C37.3244 2.1875 39.05 3.90332 39.05 6.01562ZM39.6 16.7959V22.5859C40.2875 21.8135 40.7 20.8018 40.7 19.6943C40.7 18.5869 40.2875 17.5684 39.6 16.8027V16.7959ZM22 10.9375C19.5731 10.9375 17.6 8.97559 17.6 6.5625C17.6 4.14941 19.5731 2.1875 22 2.1875C24.4269 2.1875 26.4 4.14941 26.4 6.5625C26.4 8.97559 24.4269 10.9375 22 10.9375ZM16.5 20.7812C16.5 21.8887 16.9125 22.9004 17.6 23.6729V17.8896C16.9125 18.6621 16.5 19.6738 16.5 20.7812ZM26.4 17.8896V23.6797C27.0875 22.9072 27.5 21.8955 27.5 20.7881C27.5 19.6807 27.0875 18.6621 26.4 17.8965V17.8896ZM30.8 20.7812C30.8 23.8369 28.9988 26.4688 26.4 27.6992V30.625C26.4 31.835 25.4169 32.8125 24.2 32.8125H19.8C18.5831 32.8125 17.6 31.835 17.6 30.625V27.6992C15.0013 26.4688 13.2 23.8369 13.2 20.7812C13.2 16.5498 16.6444 13.125 20.9 13.125H23.1C27.3556 13.125 30.8 16.5498 30.8 20.7812Z" fill="#B2E2D6"/>
</svg>
